<?xml version="1.0" encoding="UTF-8" standalone="no"?>
<!DOCTYPE svg PUBLIC "-//W3C//DTD SVG 1.1//EN" "http://www.w3.org/Graphics/SVG/1.1/DTD/svg11.dtd">
<svg width="100%" height="100%" viewBox="0 0 1536 1536" version="1.1" xmlns="http://www.w3.org/2000/svg" xmlns:xlink="http://www.w3.org/1999/xlink" xml:space="preserve" xmlns:serif="http://www.serif.com/" style="fill-rule:evenodd;clip-rule:evenodd;stroke-linecap:round;stroke-linejoin:round;stroke-miterlimit:1.5;">
    <rect id="ArtBoard1" x="0" y="0" width="1536" height="1536" style="fill:none;"/>
    <clipPath id="_clip1">
        <rect id="ArtBoard11" serif:id="ArtBoard1" x="0" y="0" width="1536" height="1536"/>
    </clipPath>
    <g clip-path="url(#_clip1)">
        <g transform="matrix(1.86886,0,0,1.86886,0,-5.68434e-14)">
            <circle cx="410.947" cy="410.947" r="410.947" style="fill:url(#_Linear2);"/>
        </g>
        <g transform="matrix(0.88035,0,0,0.88035,1792.29,-3.6417)">
            <path d="M-870.177,1148C-875.59,1305.23 -1004.95,1431.23 -1163.5,1431.23C-1322.05,1431.23 -1451.41,1305.23 -1456.82,1148L-870.177,1148Z" style="fill:rgb(42,73,68);"/>
        </g>
        <g id="mouth" transform="matrix(0.754469,0,0,0.664248,277.391,496.363)">
            <path d="M992.02,757.703C992.02,741.946 986.509,726.834 976.699,715.693C966.89,704.551 953.585,698.291 939.713,698.291C812.496,698.291 488.044,698.291 360.828,698.291C346.955,698.291 333.65,704.551 323.841,715.693C314.031,726.834 308.521,741.946 308.521,757.703C308.521,757.705 308.521,757.707 308.521,757.709C308.521,773.466 314.031,788.577 323.841,799.719C333.65,810.861 346.955,817.12 360.828,817.12C488.044,817.12 812.496,817.12 939.713,817.12C953.585,817.12 966.89,810.861 976.699,799.719C986.509,788.577 992.02,773.466 992.02,757.709C992.02,757.707 992.02,757.705 992.02,757.703Z" style="fill:rgb(235,235,235);"/>
        </g>
        <g transform="matrix(1,0,0,1,5,0)">
            <path id="mouth1" serif:id="mouth" d="M474.157,725.873L246.928,632.979C227.688,625.113 218.467,603.14 226.333,583.9C226.333,583.899 226.333,583.899 226.334,583.898C234.199,564.658 256.173,555.437 275.413,563.303L602.068,696.844C614.591,700.231 625.024,710.011 628.624,723.447C628.624,723.447 628.624,723.448 628.624,723.448C629.514,726.769 629.931,730.105 629.915,733.384C629.932,738.168 629.031,743.035 627.107,747.74C627.107,747.74 627.107,747.741 627.107,747.741C621.83,760.649 610.203,769.048 597.314,770.802L256.501,862.122C236.424,867.502 215.786,855.587 210.407,835.509C210.406,835.509 210.406,835.508 210.406,835.508C205.026,815.43 216.941,794.793 237.019,789.413L474.157,725.873Z" style="fill:rgb(235,235,235);"/>
        </g>
        <g transform="matrix(0.916333,0,0,0.916333,-9.90429,376.754)">
            <circle cx="1230.36" cy="385.449" r="125.818" style="fill:rgb(42,73,68);"/>
        </g>
        <g transform="matrix(0.602137,0.024989,-0.024989,0.602137,546.362,243.69)">
            <path d="M1120.52,456C1120.52,456 1265.69,521.041 1318.82,674.954" style="fill:none;stroke:rgb(42,73,68);stroke-width:79.65px;"/>
        </g>
    </g>
    <defs>
        <linearGradient id="_Linear2" x1="0" y1="0" x2="1" y2="0" gradientUnits="userSpaceOnUse" gradientTransform="matrix(3.19142e-14,521.199,-521.199,3.19142e-14,410.947,380.957)"><stop offset="0" style="stop-color:rgb(36,121,107);stop-opacity:1"/><stop offset="0.57" style="stop-color:rgb(34,118,104);stop-opacity:1"/><stop offset="0.72" style="stop-color:rgb(29,109,96);stop-opacity:1"/><stop offset="0.85" style="stop-color:rgb(23,97,85);stop-opacity:1"/><stop offset="1" style="stop-color:rgb(8,67,57);stop-opacity:1"/></linearGradient>
    </defs>
</svg>
